<svg width="17" height="17" viewBox="0 0 17 17" fill="none" xmlns="http://www.w3.org/2000/svg">
<g id="ion:call">
<path id="Vector" d="M12.9792 15.9377C12.331 15.9377 11.4206 15.7033 10.0573 14.9416C8.39945 14.0119 7.11715 13.1536 5.46828 11.509C3.87852 9.92028 3.10488 8.89164 2.02213 6.92137C0.798927 4.69676 1.00744 3.53067 1.24053 3.03229C1.51811 2.43663 1.92783 2.08036 2.45742 1.72674C2.75823 1.52966 3.07655 1.36072 3.40836 1.22206C3.44156 1.20778 3.47244 1.19416 3.5 1.18188C3.66436 1.10784 3.91338 0.995942 4.22881 1.11547C4.43932 1.1945 4.62725 1.3562 4.92143 1.64672C5.52473 2.24172 6.34916 3.56686 6.6533 4.21764C6.8575 4.65625 6.99264 4.94579 6.99297 5.27051C6.99297 5.65069 6.80172 5.94387 6.56963 6.2603C6.52613 6.31973 6.48297 6.37651 6.44113 6.43163C6.18846 6.76366 6.13301 6.85961 6.16953 7.03094C6.24358 7.37526 6.79574 8.40024 7.70318 9.30569C8.61063 10.2111 9.60606 10.7284 9.9517 10.8022C10.1303 10.8403 10.2283 10.7826 10.5709 10.5209C10.6201 10.4834 10.6705 10.4446 10.7233 10.4057C11.0773 10.1424 11.3569 9.95614 11.7281 9.95614H11.7301C12.0531 9.95614 12.3297 10.0963 12.7879 10.3273C13.3856 10.6288 14.7505 11.4426 15.3492 12.0466C15.6404 12.3401 15.8028 12.5274 15.8821 12.7376C16.0016 13.054 15.8891 13.302 15.8157 13.468C15.8034 13.4956 15.7898 13.5258 15.7755 13.5593C15.6358 13.8906 15.4658 14.2082 15.2679 14.5083C14.9149 15.0362 14.5573 15.4449 13.9603 15.7229C13.6538 15.8679 13.3183 15.9413 12.9792 15.9377Z" fill="white"/>
</g>
</svg>
