<svg width="20" height="25" viewBox="0 0 20 25" fill="none" xmlns="http://www.w3.org/2000/svg">
<path id="Vector" d="M9.99997 0C7.34781 0 4.80428 1.05357 2.92892 2.92892C1.05357 4.80428 0 7.34781 0 9.99997C0 16.7499 8.81247 24.3749 9.18747 24.6999C9.41389 24.8936 9.70203 25 9.99997 25C10.2979 25 10.5861 24.8936 10.8125 24.6999C11.25 24.3749 19.9999 16.7499 19.9999 9.99997C19.9999 7.34781 18.9464 4.80428 17.071 2.92892C15.1957 1.05357 12.6521 0 9.99997 0ZM9.99997 22.0624C7.33748 19.5624 2.49999 14.175 2.49999 9.99997C2.49999 8.01085 3.29017 6.1032 4.69668 4.69668C6.1032 3.29017 8.01085 2.49999 9.99997 2.49999C11.9891 2.49999 13.8967 3.29017 15.3033 4.69668C16.7098 6.1032 17.4999 8.01085 17.4999 9.99997C17.4999 14.175 12.6625 19.5749 9.99997 22.0624ZM9.99997 4.99998C9.01106 4.99998 8.04437 5.29323 7.22213 5.84263C6.39988 6.39204 5.75902 7.17293 5.38058 8.08656C5.00215 9.00018 4.90313 10.0055 5.09606 10.9754C5.28898 11.9453 5.76518 12.8362 6.46445 13.5355C7.16371 14.2348 8.05462 14.711 9.02452 14.9039C9.99442 15.0968 10.9998 14.9978 11.9134 14.6194C12.827 14.2409 13.6079 13.6001 14.1573 12.7778C14.7067 11.9556 15 10.9889 15 9.99997C15 8.67389 14.4732 7.40212 13.5355 6.46445C12.5978 5.52677 11.326 4.99998 9.99997 4.99998ZM9.99997 12.5C9.50552 12.5 9.02217 12.3533 8.61105 12.0786C8.19993 11.8039 7.87949 11.4135 7.69028 10.9567C7.50106 10.4999 7.45155 9.99719 7.54801 9.51224C7.64447 9.02729 7.88258 8.58184 8.23221 8.23221C8.58184 7.88258 9.02729 7.64447 9.51224 7.54801C9.99719 7.45155 10.4999 7.50106 10.9567 7.69028C11.4135 7.87949 11.8039 8.19993 12.0786 8.61105C12.3533 9.02217 12.5 9.50552 12.5 9.99997C12.5 10.663 12.2366 11.2989 11.7677 11.7677C11.2989 12.2366 10.663 12.5 9.99997 12.5Z" fill="white"/>
</svg>
