<svg width="18" height="18" viewBox="0 0 18 18" fill="none" xmlns="http://www.w3.org/2000/svg">
<path id="Vector" d="M8.9974 17.3337C10.6456 17.3337 12.2567 16.8449 13.6271 15.9292C14.9976 15.0136 16.0657 13.7121 16.6964 12.1894C17.3271 10.6666 17.4922 8.99109 17.1706 7.37458C16.8491 5.75807 16.0554 4.27321 14.89 3.10777C13.7245 1.94234 12.2397 1.14866 10.6231 0.827119C9.00664 0.505575 7.33108 0.670603 5.80837 1.30133C4.28565 1.93206 2.98416 3.00017 2.06848 4.37058C1.1528 5.74099 0.664063 7.35215 0.664062 9.00033C0.664062 11.2105 1.54204 13.3301 3.10484 14.8929C3.87866 15.6667 4.79732 16.2805 5.80837 16.6993C6.81941 17.1181 7.90305 17.3337 8.9974 17.3337ZM5.90823 8.41116C5.98558 8.33375 6.07742 8.27234 6.17851 8.23043C6.2796 8.18853 6.38796 8.16697 6.4974 8.16697C6.60683 8.16697 6.71519 8.18853 6.81628 8.23043C6.91737 8.27234 7.00922 8.33375 7.08656 8.41116L8.16406 9.48858L10.9082 6.7445C11.0654 6.5927 11.2759 6.5087 11.4944 6.5106C11.7129 6.5125 11.9219 6.60014 12.0764 6.75465C12.2309 6.90915 12.3186 7.11816 12.3205 7.33666C12.3224 7.55516 12.2384 7.76566 12.0866 7.92283L8.75323 11.2562C8.67588 11.3336 8.58403 11.395 8.48294 11.4369C8.38185 11.4788 8.27349 11.5003 8.16406 11.5003C8.05463 11.5003 7.94628 11.4788 7.84519 11.4369C7.74409 11.395 7.65225 11.3336 7.5749 11.2562L5.90823 9.5895C5.83081 9.51215 5.7694 9.42031 5.7275 9.31921C5.6856 9.21812 5.66403 9.10976 5.66403 9.00033C5.66403 8.8909 5.6856 8.78254 5.7275 8.68145C5.7694 8.58035 5.83081 8.48851 5.90823 8.41116Z" fill="#00D52F"/>
</svg>
